HIERARCHY
ROOT Hips
{
	OFFSET 0.0000 0.0000 0.0000
	CHANNELS 6 Xposition Yposition Zposition Zrotation Xrotation Yrotation
	JOINT Ab
	{
		OFFSET -0.0000 8.1305 -0.0000
		CHANNELS 3 Zrotation Xrotation Yrotation
		JOINT Chest
		{
			OFFSET -0.0000 26.2902 -0.0000
			CHANNELS 3 Zrotation Xrotation Yrotation
			JOINT Neck
			{
				OFFSET -0.0000 26.2902 0.0000
				CHANNELS 3 Zrotation Xrotation Yrotation
				JOINT Head
				{
					OFFSET -0.0000 10.8167 0.0000
					CHANNELS 3 Zrotation Xrotation Yrotation
					End Site
					{
						OFFSET -0.0000 16.7167 0.0000
					}
				}
			}
			JOINT LeftCollar
			{
				OFFSET -0.0000 26.2902 0.0000
				CHANNELS 3 Zrotation Xrotation Yrotation
				JOINT LeftShoulder
				{
					OFFSET 19.6667 -0.0000 0.0000
					CHANNELS 3 Zrotation Xrotation Yrotation
					JOINT LeftElbow
					{
						OFFSET 27.2190 0.0000 0.0000
						CHANNELS 3 Zrotation Xrotation Yrotation
						JOINT LeftWrist
						{
							OFFSET 30.7431 0.0000 0.0000
							CHANNELS 3 Zrotation Xrotation Yrotation
							End Site
							{
								OFFSET 0.0000 -14.7500 0.0000
							}
						}
					}
				}
			}
			JOINT RightCollar
			{
				OFFSET -0.0000 26.2902 0.0000
				CHANNELS 3 Zrotation Xrotation Yrotation
				JOINT RightShoulder
				{
					OFFSET -19.6667 0.0000 0.0000
					CHANNELS 3 Zrotation Xrotation Yrotation
					JOINT RightElbow
					{
						OFFSET -27.2190 0.0000 0.0000
						CHANNELS 3 Zrotation Xrotation Yrotation
						JOINT RightWrist
						{
							OFFSET -30.7431 0.0000 0.0000
							CHANNELS 3 Zrotation Xrotation Yrotation
							End Site
							{
								OFFSET -0.0000 -14.7500 0.0000
							}
						}
					}
				}
			}
		}
	}
	JOINT LeftHip
	{
		OFFSET 11.8000 0.0000 0.0000
		CHANNELS 3 Zrotation Xrotation Yrotation
		JOINT LeftKnee
		{
			OFFSET -0.0000 -39.7832 0.0000
			CHANNELS 3 Zrotation Xrotation Yrotation
			JOINT LeftAnkle
			{
				OFFSET -0.0000 -41.7317 0.0000
				CHANNELS 3 Zrotation Xrotation Yrotation
				End Site
				{
					OFFSET -0.0000 -4.9167 16.7167
				}
			}
		}
	}
	JOINT RightHip
	{
		OFFSET -11.8000 0.0000 0.0000
		CHANNELS 3 Zrotation Xrotation Yrotation
		JOINT RightKnee
		{
			OFFSET -0.0000 -39.7832 0.0000
			CHANNELS 3 Zrotation Xrotation Yrotation
			JOINT RightAnkle
			{
				OFFSET -0.0000 -41.7317 0.0000
				CHANNELS 3 Zrotation Xrotation Yrotation
				End Site
				{
					OFFSET -0.0000 -4.9167 16.7167
				}
			}
		}
	}
}
MOTION
Frames: 23
Frame Time: 0.010000
-14.8535 97.0497 180.3694 358.8788 357.8655 179.1257 358.3105 347.2802 359.9750 2.8375 12.3991 359.8667 358.4138 3.5746 359.8215 358.7334 8.2299 359.8643 339.8596 357.3774 14.7175 322.1120 60.1450 334.5404 8.2944 357.5661 327.3411 85.5585 356.5994 346.5966 27.7482 355.9327 343.5677 45.0845 48.8479 4.8740 338.4653 354.1813 29.9765 270.5395 355.6022 5.5569 357.3178 2.5568 359.9414 357.3572 7.7943 2.8031 354.9032 351.1577 16.6259 358.6528 5.6848 9.4338 6.2855 6.9081 8.5813 350.9029 343.1348 317.1607 
-14.8842 97.0461 180.3577 358.8772 357.8482 179.1267 358.3117 347.2732 359.9770 2.8348 12.4193 359.8617 358.3691 3.5278 359.8342 358.7745 8.2759 359.8667 339.8620 357.3753 14.7166 321.9789 60.0980 334.6627 8.2694 357.5603 327.3258 85.6282 356.6023 346.5884 27.7514 355.9053 343.5758 45.0683 48.8308 4.8795 338.4471 354.1462 29.9793 270.5136 355.5979 5.5536 357.2936 2.5383 359.9279 357.3577 7.8115 2.7860 355.0066 351.1444 16.6442 358.6251 5.6734 9.4705 6.3006 6.9104 8.5559 350.9041 343.1330 317.1551 
-14.9126 97.0420 180.3502 358.8803 357.8281 179.1346 358.3092 347.2758 359.9775 2.8285 12.4179 359.8543 358.3550 3.5188 359.8339 358.8132 8.2928 359.8547 339.8658 357.3742 14.7252 321.9847 60.1005 334.6515 8.2792 357.5777 327.3466 85.5724 356.6396 346.5552 27.7891 355.9194 343.6030 45.0620 48.7290 4.8039 338.5304 354.1548 30.0709 270.4826 355.6517 5.5848 357.2823 2.5010 359.9044 357.3477 7.8551 2.7922 355.0321 351.1344 16.6518 358.6103 5.6530 9.4425 6.2994 6.9264 8.5829 350.9128 343.1108 317.1558 
-14.9431 97.0374 180.3419 358.8862 357.8081 179.1412 358.3185 347.2844 359.9658 2.8040 12.4062 359.8569 358.3691 3.5240 359.8259 358.8264 8.3044 359.8480 339.8598 357.3679 14.7289 322.0161 60.0805 334.6565 8.2503 357.5870 327.2499 86.6026 356.8520 347.1007 27.7884 355.9075 343.5860 45.0762 48.7693 4.8140 338.4748 354.1481 30.0512 270.4929 355.6485 5.4977 357.2741 2.4676 359.8639 357.3286 7.8886 2.8172 354.9996 351.0972 16.6619 358.5963 5.6300 9.4344 6.3025 6.9448 8.5503 350.9340 343.0894 317.1834 
-14.9724 97.0329 180.3331 358.8961 357.7859 179.1401 358.3201 347.2844 359.9666 2.8029 12.4078 359.8652 358.3645 3.5209 359.8173 358.8200 8.3122 359.8588 339.8431 357.3822 14.7420 322.0648 60.0581 334.6183 8.1837 357.5902 327.2603 86.7914 356.8464 347.1440 27.7910 355.9220 343.5948 45.1033 48.7594 4.7786 338.4904 354.1655 30.0573 270.5582 355.6299 5.5972 357.2674 2.4282 359.8600 357.3217 7.9360 2.7927 355.0883 351.0780 16.6814 358.5856 5.6078 9.4516 6.3076 6.9576 8.5694 350.9252 343.0788 317.1472 
-15.0027 97.0279 180.3256 358.9095 357.7708 179.1467 358.3231 347.3028 359.9779 2.8053 12.3908 359.8518 358.3432 3.5447 359.8213 358.8450 8.2982 359.8603 339.8383 357.3618 14.7403 322.0100 60.0574 334.6801 8.2415 357.5564 327.2687 86.7071 356.8494 347.1398 27.7939 355.9296 343.5903 45.1045 48.8046 4.7857 338.4618 354.1565 30.0123 270.5857 355.5898 5.5974 357.2689 2.3919 359.8358 357.2981 7.9853 2.7941 354.8749 351.0238 16.7124 358.5830 5.5922 9.4055 6.2974 6.9737 8.5945 350.9403 343.0577 317.1611 
-15.0418 97.0234 180.3166 358.9059 357.7565 179.1465 358.3150 347.3178 359.9733 2.7984 12.3807 359.8633 358.3489 3.5757 359.8131 358.8611 8.2727 359.8404 339.8193 357.3823 14.7165 321.9961 60.0109 334.7419 8.1578 357.5831 327.2540 86.6166 356.8442 347.0277 27.7868 355.9211 343.5903 45.1553 48.7867 4.7432 338.4282 354.1647 29.9966 270.5964 355.5490 5.6470 357.2401 2.3514 359.7969 357.2874 8.0485 2.8056 355.0327 350.9912 16.7402 358.5479 5.5712 9.3883 6.3111 6.9995 8.6091 350.9523 343.0347 317.1579 
-15.0785 97.0157 180.3090 358.9131 357.7275 179.1486 358.3241 347.3160 359.9743 2.7817 12.3837 359.8620 358.3292 3.5129 359.8345 358.8803 8.3587 359.8723 339.8228 357.3682 14.7436 322.0728 60.0667 334.6430 8.2382 357.5582 327.2681 86.9094 356.8963 347.3594 27.7999 355.9313 343.6121 45.1850 48.7708 4.6854 338.4479 354.1548 30.0205 270.6098 355.5506 5.6408 357.2275 2.2974 359.7752 357.2751 8.1053 2.7975 355.1125 350.9704 16.7620 358.5279 5.5401 9.4023 6.3220 7.0100 8.5848 350.9918 343.0022 317.1599 
-15.1160 97.0109 180.2984 358.9218 357.7090 179.1517 358.3282 347.3203 359.9720 2.7717 12.4000 359.8714 358.3353 3.4975 359.8321 358.8854 8.3632 359.8672 339.8301 357.3556 14.7228 321.9935 60.0360 334.7321 8.2594 357.5737 327.2537 86.8869 356.8744 347.3220 27.7955 355.9104 343.6116 45.2137 48.7873 4.6727 338.3903 354.1394 30.0061 270.7366 355.4705 5.4750 357.2118 2.2488 359.7661 357.2699 8.1767 2.7803 355.1679 350.9350 16.7777 358.5158 5.5217 9.3870 6.3155 7.0284 8.5845 351.0030 342.9915 317.1694 
-15.1566 97.0042 180.2909 358.9288 357.6808 179.1534 358.3443 347.3167 359.9739 2.7476 12.4201 359.8646 358.2907 3.4821 359.8368 358.9420 8.3607 359.8674 339.8246 357.3682 14.7448 322.0701 60.0397 334.6635 8.2244 357.5862 327.2497 86.9320 356.8881 347.3318 27.8136 355.9134 343.6364 45.2185 48.7602 4.6323 338.3872 354.1082 30.0277 271.0695 355.5880 5.8039 357.1884 2.1841 359.7589 357.2732 8.2549 2.7855 355.0048 350.8770 16.7886 358.4944 5.4834 9.3676 6.3196 7.0615 8.6062 351.0162 342.9629 317.1677 
-15.1960 96.9991 180.2786 358.9378 357.6658 179.1491 358.3464 347.3165 359.9792 2.7489 12.4586 359.8667 358.2548 3.4608 359.8441 358.9757 8.3513 359.8647 339.8147 357.3587 14.7603 322.1209 60.0331 334.6096 8.2639 357.5723 327.2588 86.7512 356.7970 347.1942 27.8205 355.9319 343.6469 45.1983 48.7239 4.6488 338.3906 354.1287 30.0361 271.1539 355.5808 5.8769 357.1778 2.1393 359.7215 357.2503 8.3294 2.7879 355.1733 350.8394 16.8154 358.4816 5.4624 9.3538 6.3141 7.0881 8.6087 351.0242 342.9437 317.1798 
-15.2371 96.9936 180.2620 358.9501 357.6517 179.1421 358.3481 347.3199 359.9817 2.7486 12.4811 359.8706 358.2340 3.4601 359.8355 359.0168 8.3352 359.8548 339.8045 357.3632 14.7888 322.2397 60.0551 334.4890 8.2375 357.5808 327.2793 86.7365 356.7529 347.1770 27.8048 355.9220 343.6463 45.2299 48.7936 4.6525 338.3773 354.1384 29.9813 270.7730 355.5033 5.7416 357.1648 2.0988 359.6825 357.2404 8.3962 2.7745 355.2114 350.7918 16.8720 358.4656 5.4467 9.3336 6.3123 7.1147 8.6346 351.0468 342.9127 317.1756 
-15.2769 96.9882 180.2456 358.9681 357.6354 179.1425 358.3501 347.3231 359.9836 2.7510 12.4984 359.8699 358.2382 3.4567 359.8295 359.0038 8.3370 359.8574 339.8051 357.3537 14.8086 322.3049 60.0917 334.4126 8.2701 357.5655 327.3061 86.6791 356.7201 347.1871 27.8121 355.9300 343.6596 45.2326 48.7830 4.6267 338.4206 354.1540 29.9891 270.6466 355.4912 5.6421 357.1609 2.0509 359.6678 357.2221 8.4802 2.7836 355.1474 350.7462 16.8694 358.4590 5.4266 9.2837 6.3047 7.1512 8.6722 351.0717 342.8742 317.1909 
-15.3200 96.9832 180.2263 358.9816 357.6218 179.1361 358.3537 347.3263 359.9868 2.7442 12.5150 359.8804 358.2392 3.4617 359.8273 359.0054 8.3431 359.8508 339.8053 357.3606 14.7966 322.2677 60.0764 334.4653 8.2632 357.5646 327.2839 86.5603 356.7231 347.1431 27.8338 355.9456 343.6778 45.2147 48.7326 4.6101 338.4630 354.1464 30.0249 270.6428 355.4972 5.6496 357.1452 2.0074 359.6599 357.2159 8.5674 2.7581 355.1152 350.6826 16.9198 358.4442 5.4054 9.2539 6.3047 7.1925 8.6978 351.0863 342.8418 317.1898 
-15.3654 96.9779 180.2080 358.9952 357.6073 179.1255 358.3556 347.3349 359.9964 2.7494 12.5277 359.8893 358.2906 3.4835 359.8524 358.9350 8.3094 359.8793 339.7969 357.3570 14.7804 322.2028 60.0557 334.5440 8.2817 357.5666 327.2649 86.4941 356.7090 347.1412 27.8369 355.9432 343.6847 45.2010 48.7466 4.6174 338.4180 354.1489 30.0182 270.7722 355.4480 5.3946 357.1311 1.9705 359.6436 357.2076 8.6318 2.7407 355.1495 350.6342 16.9461 358.4275 5.3856 9.2436 6.3037 7.2226 8.7099 351.1078 342.8062 317.1885 
-15.4108 96.9721 180.1893 359.0094 357.5887 179.1180 358.3535 347.3414 0.0008 2.7501 12.5423 359.8969 358.3006 3.4972 359.8349 358.8796 8.3268 359.8676 339.7820 357.3471 14.7690 322.1850 60.0225 334.5901 8.2798 357.5769 327.2536 86.3297 356.6950 347.0846 27.8476 355.9367 343.6806 45.1889 48.7946 4.6080 338.4154 354.1369 30.0258 270.6833 355.5297 5.4236 357.1164 1.9300 359.6263 357.1953 8.6980 2.7376 355.1936 350.6000 16.9772 358.4116 5.3618 9.2303 6.3039 7.2573 8.7158 351.1522 342.7657 317.2053 
-15.4583 96.9664 180.1655 359.0260 357.5806 179.1079 358.3458 347.3418 0.0155 2.7681 12.5898 359.9043 358.3037 3.4827 359.8408 358.8520 8.3417 359.8708 339.7916 357.3738 14.5878 321.5367 59.7426 335.3380 8.2592 357.5726 327.0498 86.2773 356.7328 346.8729 27.8377 355.9401 343.6684 45.1642 48.8314 4.6426 338.4084 354.1418 30.0136 270.6794 355.5357 5.4807 357.1012 1.9211 359.5228 357.1714 8.7243 2.8401 355.2549 350.5753 16.9754 358.3969 5.3491 9.1922 6.3022 7.2986 8.7594 351.1515 342.7378 317.1998 
-15.5094 96.9608 180.1463 359.0357 357.5613 179.0961 358.3365 347.3451 0.0247 2.7780 12.6142 359.9180 358.3083 3.4927 359.8338 358.8528 8.3385 359.8737 339.7967 357.3966 14.4704 321.1506 59.5709 335.7693 8.2497 357.5597 326.9542 86.3602 356.7065 346.7684 27.8269 355.9367 343.6569 45.1748 48.8611 4.6434 338.3685 354.1436 29.9983 270.7031 355.5509 5.4284 357.0757 1.8837 359.5002 357.1646 8.7865 2.8405 355.2812 350.5327 17.0079 358.3681 5.3010 9.0645 6.2946 7.3893 8.8859 351.1743 342.6784 317.2034 
-15.5640 96.9544 180.1259 359.0456 357.5427 179.0810 358.3481 347.3567 0.0348 2.7552 12.6169 359.9233 358.3052 3.5350 359.8340 358.8653 8.3190 359.8807 339.8032 357.3983 14.4846 321.1649 59.5886 335.7304 8.2778 357.5488 326.9891 86.4396 356.6720 346.8385 27.8513 355.9070 343.6987 45.2130 48.7405 4.5353 338.4019 354.1551 30.0620 270.7213 355.5775 5.4555 357.0479 1.8575 359.4737 357.1557 8.8296 2.8561 355.3001 350.4897 17.0268 358.3370 5.2675 9.0708 6.3085 7.4368 8.8622 351.1834 342.6428 317.2211 
-15.6201 96.9469 180.1108 359.0567 357.5121 179.0713 358.3483 347.3710 0.0400 2.7456 12.6052 359.9306 358.3042 3.5696 359.8377 358.8833 8.3152 359.8750 339.7953 357.4007 14.5075 321.2226 59.6028 335.6660 8.2651 357.5480 327.0373 86.0711 356.6540 346.6592 27.8891 355.9143 343.7268 45.1961 48.5772 4.4669 338.5416 354.1790 30.1342 270.6722 355.6329 5.7678 357.0189 1.8069 359.4632 357.1562 8.8878 2.8534 355.3573 350.4537 17.0395 358.3087 5.2065 9.0460 6.3206 7.5154 8.8967 351.2232 342.5752 317.2105 
-15.6774 96.9386 180.0945 359.0662 357.4796 179.0610 358.3387 347.3754 0.0455 2.7522 12.6133 359.9418 358.2815 3.5812 359.8392 358.9137 8.3327 359.8663 339.7688 357.3877 14.5248 321.2952 59.6127 335.6030 8.2691 357.5499 327.0651 85.8478 356.6405 346.5711 27.8982 355.9239 343.7172 45.1496 48.5778 4.5026 338.5111 354.1608 30.1094 270.9513 355.6556 5.9947 356.9906 1.7561 359.4458 357.1495 8.9467 2.8372 355.5131 350.4305 17.0672 358.2790 5.1405 9.0025 6.3258 7.6043 8.9504 351.2258 342.5295 317.2046 
-15.7343 96.9305 180.0718 359.0783 357.4525 179.0483 358.3363 347.3693 0.0538 2.7474 12.6382 359.9462 358.2935 3.5848 359.8439 358.8865 8.3602 359.8776 339.7554 357.3794 14.5498 321.3681 59.6198 335.5274 8.2518 357.5612 327.0694 85.8480 356.6489 346.5962 28.1832 355.9069 344.0612 45.1156 47.2880 3.9029 339.0696 354.3283 30.7537 271.1096 355.6927 6.9073 356.9655 1.7304 359.4372 357.1439 8.9766 2.8230 355.6169 350.4083 17.0874 358.2551 5.0915 8.9904 6.3292 7.6726 8.9564 351.2164 342.5022 317.2122 
-15.7954 96.9221 180.0481 359.0856 357.4279 179.0330 358.3349 347.3674 0.0601 2.7312 12.6611 359.9574 358.3314 3.5819 359.8528 358.8289 8.4044 359.8998 339.7490 357.3692 14.5786 321.4686 59.6425 335.4135 8.2269 357.5706 327.0507 86.5201 356.7523 346.9111 28.4152 355.9308 344.3457 45.0791 46.1972 3.4582 339.6372 354.4341 31.3033 270.6978 355.6602 7.4724 356.9273 1.7006 359.4653 357.1522 9.0198 2.7933 355.6487 350.3700 17.0978 358.2179 5.0450 8.9946 6.3442 7.7402 8.9669 351.2518 342.4393 317.2021 
